<?xml version="1.0" encoding="UTF-8"?>
<svg id="Calque_1" data-name="Calque 1" xmlns="http://www.w3.org/2000/svg" viewBox="0 0 227.27 40.94">
  <defs>
    <style>
      .cls-1 {
        fill: #fff;
      }

      .cls-2 {
        fill: #1d1d1b;
      }
    </style>
  </defs>
  <g>
    <path class="cls-2" d="m46.13,31.12c-3.53,5.68-11.2,9.82-21.8,9.82C9.1,40.94,0,33.22,0,20.47S9.1,0,24.22,0c9.49,0,16,3.53,19.86,7.67l-5.41,3.86c-3.42-3.86-7.95-5.74-14.4-5.74-10.87,0-17.55,4.97-17.55,14.68s6.79,14.68,17.88,14.68c6.79,0,12.3-1.77,15.12-6.18v-4.41h-16.11v-5.68h22.51v12.25Z"/>
    <path class="cls-2" d="m144.45,33.93v5.85h-35.09V1.16h6.62v32.78h28.47Z"/>
    <path class="cls-2" d="m158.08,7.01v11.37h26.38v5.9h-26.38v15.51h-6.62V1.16h37.8v5.85h-31.18Z"/>
    <path class="cls-2" d="m227.27,25.71h-13.13v11.7h-5.41v-11.7h-13.24v-5.02h13.24v-11.7h5.41v11.7h13.13v5.02Z"/>
  </g>
  <g>
    <path d="m90.6,36.81c.14-.05.28-.1.42-.15,0,.01.01.02.02.04-.58.28-1.16.56-1.75.84.01.02.03.05.04.07.32-.12.63-.24.95-.36,0,.02.01.03.02.05-1.14.49-2.28.98-3.42,1.46,0,.02.02.03.02.05.08-.03.16-.06.25-.09.68-.23,1.35-.47,2.04-.7.1-.03.23,0,.35,0,.18.01.36.03.55.05-.67.28-1.34.57-2,.85.02.01.05.03.1.05-.15.03-.28.06-.41.09,0,.02,0,.04.01.07.32-.05.63-.11.95-.16l.02.04c-.38.11-.76.23-1.2.36.11.02.15.03.2.04-4.22,1.11-8.5,1.75-12.91,1.44h1.19s0-.02,0-.03c-.06,0-.12-.02-.18-.02-2.76-.12-5.46-.51-8.05-1.39-1.13-.39-2.24-.84-3.33-1.31-1.25-.54-2.42-1.2-3.47-2.01-.75-.57-1.48-1.16-2.19-1.76-.87-.74-1.64-1.57-2.3-2.46-.36-.49-.75-.97-1.07-1.48-.44-.71-.83-1.45-1.26-2.16-.52-.86-.76-1.81-1.07-2.73-.64-1.89-.81-3.82-.75-5.78.04-1.26.2-2.52.55-3.74.3-1.03.66-2.06,1.08-3.05.32-.75.75-1.47,1.17-2.18.32-.54.68-1.07,1.1-1.55.72-.85,1.46-1.69,2.26-2.47.67-.66,1.42-1.26,2.19-1.84,1.07-.8,2.23-1.49,3.46-2.09,1.39-.68,2.83-1.26,4.33-1.69,3.01-.87,6.09-1.25,9.25-1.07,2.3.13,4.56.49,6.73,1.2,1.13.37,2.23.8,3.32,1.26,1.23.51,2.38,1.15,3.44,1.92.74.54,1.45,1.1,2.17,1.67.9.71,1.7,1.51,2.4,2.39.32.39.66.77.94,1.19.46.66.92,1.33,1.31,2.02.4.73.75,1.48,1.08,2.24,1,2.29,1.28,4.69,1.2,7.13-.05,1.77-.37,3.5-.97,5.18-.3.84-.68,1.66-1.09,2.46-.32.64-.72,1.25-1.12,1.86-.34.51-.7,1.02-1.12,1.48-.74.81-1.48,1.63-2.3,2.37-.69.63-1.48,1.18-2.23,1.76-.29.22-.63.41-.94.61,0,.01.02.02.02.04Zm2.16-3.87c-.09-.04-.17-.08-.28-.13-.05.13-.08.23-.12.33.08.02.16.05.22.04.08,0,.16-.04.21-.09.03-.02,0-.1,0-.15.28.09.24-.21.41-.24,0-.02-.02-.05-.03-.07-.22.02-.43.05-.67.08.09.09.17.16.24.23Zm2.72-1.32c-.09-.03-.19-.06-.28-.09-.24.31-.47.61-.71.91.03.02.06.04.09.06.03-.15.28-.07.3-.34.02-.19.39-.36.6-.54.08-.18.16-.37.26-.59-.18.11-.32.19-.5.3.07.08.15.19.24.29Zm2.1-6.89c-.21.07-.37.2-.41.41.32.13.29-.21.45-.29,0,0-.03-.08-.05-.12.09-.12.24-.23.26-.36.06-.41.08-.82.1-1.23,0-.11-.06-.21-.1-.36-.11.42-.21.77-.28,1.03.09.19.14.32.21.46-.08.06-.16.12-.24.18-.06.05-.11.11-.17.17.08.03.15.07.23.1ZM75.3.32c-.17-.02-.35-.06-.52-.05-.62.04-1.24.08-1.85.15-.4.05-.79.15-1.18.23-.11,0-.23-.02-.33,0-.45.08-.91.18-1.36.27-.24.05-.47.11-.7.17,0,.02,0,.04.01.07.07,0,.14.01.2,0,.35-.08.7-.18,1.05-.26.38-.09.75-.16,1.13-.25.15,0,.3.02.45,0,.7-.05,1.4-.09,2.1-.16.33-.03.66-.12.99-.19.02.05.03.1.06.17.88-.12,1.8.14,2.67-.22-.81-.04-1.62-.04-2.43-.03-.1,0-.2.06-.3.09Zm-22.42,19.41c-.19.48-.17.96-.09,1.45.02.13.04.28.12.39.08.11.23.17.34.26.06-.1.17-.2.19-.31.04-.34.07-.69.04-1.04-.02-.2-.13-.39-.24-.57-.11-.18-.35-.32-.11-.56.04-.04.02-.13.03-.2.04-.21.08-.43.12-.64.04-.23.11-.45.13-.68,0-.14-.07-.29-.12-.51-.2.24-.43.39-.45.57-.07.57-.33,1.15.03,1.71-.14-.04-.23-.03-.23.14,0,.2-.02.4-.03.55.08-.16.18-.36.28-.56Zm1.39,4.65c.02-.1.03-.21.05-.31.45.29,1.02.46,1.26.99.03-.12.03-.23.04-.34.01-.12.04-.23.07-.35.02-.1.06-.19.1-.29-.12.56-.14,1.11.1,1.65.09.21.31.41.12.67,0,.01.02.04.04.08.13,0,.29-.06.39-.02.25.12.48.27.7.43.28.2.54.43.74.59.03-.3.02-.67.12-1.01.13-.45.64-.64,1.12-.47.23.08.46.15.66.26.68.38,1.31.82,1.52,1.57.05.19.07.38.1.57,1.79.01,2.99,1.22,3.08,2.38,1.34-.17,3.03.69,3.32,2.13.4,0,.8-.03,1.19,0,.84.09,1.57.42,2.15.99.2.19.39.41.39.75-.37-.24-.7-.46-1.02-.68-.17-.11-.48.07-.59-.26,0-.02-.08-.03-.13-.05-.16-.05-.31-.1-.48-.14-.17-.04-.35-.26-.53,0,0,.01-.08-.02-.13-.03-.42-.06-.84-.17-1.26,0-.04.02-.11-.01-.22-.03.12-.13.19-.24.29-.32.22-.16.19-.34.12-.56-.16-.53-.71-.7-1.1-1.02-.17-.14-.45-.13-.54-.38-.02-.06-.19-.14-.26-.11-.26.09-.43-.12-.65-.13-.17,0-.35-.03-.5.02-.23.07-.43.19-.65.29.1-.14.25-.23.34-.35.07-.09.13-.24.1-.33-.29-.69-.59-1.35-1.44-1.67-.4-.15-.78-.35-1.23-.38-.17-.01-.32-.02-.4.17-.05.1-.17.18-.26.27.33-.5.31-1.21-.06-1.64-.44-.51-.98-.89-1.63-1.15-.73-.29-1.34.03-1.32.77.01.66.19,1.29.83,1.71-.11-.04-.22-.08-.34-.13-.02.11-.04.21-.06.33.15-.03.3-.05.46-.08-.03-.06-.05-.09-.07-.13.26.11.51.25.78.34.61.21,1.04.62,1.46,1.03.39.37.56.83.55,1.33,1.17.1,2.1.54,2.79,1.37.21.25.3.58.46.91.05,0,.17,0,.29-.01,1.38-.05,2.51.61,2.95,1.74.38,0,.78-.04,1.16,0,.87.12,1.68.36,2.22,1.07.09.11.28.19.44.22.46.09.92.15,1.38.21.58.07,1.12.01,1.55-.39.07-.07.15-.18.13-.26-.02-.07-.14-.14-.24-.18-.21-.09-.44-.16-.67-.25-.16.11-.34.19-.61.09-.44-.18-.92-.28-1.41-.24-.01,0-.03-.02-.05-.04.04-.05.08-.1.1-.12-.24-.16-.59.05-.87-.24.21-.08.35-.16.49-.2.75-.22,1.5-.2,2.23.04.62.21,1.22.48,1.23,1.14.59,0,1.17-.05,1.74.01.59.06,1.18.21,1.36.85.84-.27,1.67-.25,2.51-.06-.03-.14-.12-.29-.07-.34.2-.23.44-.44.67-.65h.01c.11-.05.21-.12.32-.16.44-.14.88-.28,1.32-.41.19-.06.39-.08.59-.14.07-.02.18-.07.2-.12.06-.22.08-.44.12-.68-.1.03-.22.06-.35.09-.19.04-.41.13-.58.09-.3-.07-.58-.02-.84.07-.31.11-.61.26-.9.42-.19.11-.14.22.06.34-.26.05-.52.1-.82.15.17.05.3.1.43.14,0,.03.01.06.02.09-1.12-.5-1.77.03-2.38.82h.94s0,.04,0,.07c-.23.02-.47.03-.7.06-.37.05-.66-.12-.84-.36-.09-.12-.02-.35-.02-.53h-.17c.86-.42.9-.88.17-1.39-.08-.05-.18-.1-.27-.11-.08-.01-.21,0-.26.06-.19.21-.45.25-.72.28-.25.04-.51.04-.76.09-.4.09-.83.13-1.13.47-.04-.14-.08-.26-.06-.38.06-.38.32-.64.71-.74.73-.2,1.47-.26,2.19.04.27.11.52.29.73.48.24.21.3.49.15.72.48-.04.97-.08,1.45-.14.09-.01.17-.13.24-.2.13-.13.24-.29.39-.4.15-.1.33-.16.51-.2.56-.13.84-.5,1.02-.96.03-.07.08-.17.15-.2.45-.18.91-.3,1.41-.24.6.07.84.29.86.83.34-.16.68-.31.94-.43-.04-.21-.16-.42-.11-.58.15-.46.51-.82.95-1.08.5-.3,1.07-.43,1.66-.48.08,0,.18,0,.24-.03.34-.22.77-.88.63-1.25.21-.12.43-.24.68-.38-.19-.19-.39-.39-.56-.56.15-.14.3-.24.4-.37.44-.53.82-1.15,1.72-1.09.1,0,.22.01.3-.02.09-.03.15-.12.26-.22.12-.06.38-.12.47-.26.22-.35.39-.74.54-1.13.08-.21.05-.47-.15-.61-.24-.16-.5-.32-.85-.18-.41.18-.57.56-.83.85-.18.21-.29.47-.41.72-.03.06-.02.18.02.23.12.12.27.21.44.34-.94-.25-1.13-1.17-.74-1.7.18-.24.47-.42.71-.63.06-.06.14-.15.13-.21-.13-.83.26-1.42,1.01-1.85.18-.1.23-.21.18-.42-.18-.65-.05-1.24.55-1.69.2-.15.21-.33.12-.54-.08-.19-.14-.39-.16-.58-.03-.32.02-.65-.31-.88.1.06.19.12.31.18.03-.14.06-.26.1-.4-.05-.02-.09-.04-.13-.05-1-.23-1.8-1.28-1.66-2.31.04-.28.12-.54.42-.7.2-.11.4-.22.59-.32-.37-.38-.79-.75-.97-1.28-.23-.68-.07-1.15.47-1.43.09.18.17.36.26.54-.02,0-.04.01-.05.02.07.03.15.05.26.09-.09.11-.15.21-.23.27-.18.14-.15.36-.12.5.04.2.24.37.37.56.02,0,.08-.05.13-.07.16.33.32.65.47.95h-.68c-.04.14-.09.21-.08.28.06.31-.5.56-.1.9,0,0-.02.05-.02.07-.02.11-.04.23-.06.35.06,0,.11.02.16.02-.08.25.01.42.28.51,0,.05,0,.1-.02.15-.07.4.16.67.6.74.49.08,1.23-.42,1.12-1.08-.07-.42-.23-.83-.35-1.27.13-.17.3-.39.51-.66-.05.19-.08.3-.12.42.18.06.22.05.34-.12.04-.06.03-.17,0-.24-.12-.25-.29-.49-.39-.75-.12-.31-.18-.65-.28-.97-.16-.53-.51-.93-1.04-1.21-.32-.16-.64-.31-.79-.64-.06-.12-.1-.25-.16-.38-.17.1-.33.19-.51.3-.37-.26-.75-.53-1.13-.8-.05-.04-.13-.06-.2-.06-.32-.02-.75.31-.72.6.02.22.12.45.23.65.1.19.27.34.4.51-.4-.24-.74-.51-.79-.98-.04-.38.12-.69.47-.81.15-.05.32-.03.48-.05-.17-.64-.15-.83.13-.99.25-.14.45-.13.74.08-.21-.02-.43-.04-.62-.05.02.15.03.23.04.32,0,.09.01.18.01.27,0,.28.18.49.36.69.06.06.11.14.16.2.21.25.58.32.79.1.1-.11.14-.3.14-.46.01-.35-.31-.57-.49-.85.2.18.39.37.59.55.08.07.19.2.25.19.23-.05.22.05.19.19,0,.05-.01.11.01.15.23.37.25.44.22.78,0,.05.03.11.07.14.12.1.27.18.38.3.24.26.44.53.68.79.05.05.19.08.25.06.21-.1.4-.23.58-.34-.12-.31-.3-.6-.33-.91-.05-.61-.41-1-.93-1.32-.18-.11-.36-.22-.58-.35-.17-.52-.61-1.06-.39-1.73-.66,0-1.04-.39-1.45-.71-.65-.5-.95-.95-.82-1.21.08.17.16.32.24.47.02.03.05.08.09.09.22.03.36.09.48.32.13.24.43.42.69.57.38.21.76.52,1.28.26.03-.01.07,0,.11,0,.02.09.04.18.05.26-.1.02-.23.04-.31.05.08.22.14.39.2.56-.02,0-.04,0-.05,0,.13.18.26.36.4.55-.02.03-.07.1-.12.17.13.07.25.14.36.2-.08.41.37.82.81.75.26-.05.38-.2.33-.44-.09-.46-.34-.83-.74-1.15-.35-.28-.64-.63-.95-.95-.14-.32-.23-.66-.43-.95-.21-.29-.47-.59-.79-.77-.77-.43-1.37-1.01-1.89-1.6.05-.09.12-.16.11-.2-.11-.26-.19-.55-.51-.69-.22-.1-.44-.22-.65-.34-.39-.21-.8-.4-1.16-.65-.22-.15-.4-.27-.6-.09-.07-.08-.12-.17-.2-.21-.33-.16-.66-.31-1-.44-.87-.33-1.73-.67-2.62-.96-.74-.24-1.49-.47-2.3-.52-.51-.03-1-.2-1.51-.27-.83-.11-1.67-.27-2.38.34-.03.02-.07.03-.11.05.21.06.4.11.6.16.65.14,1.3.32,1.96.39.56.06,1.16.03,1.44-.56.05.1.16.21.14.29-.06.19.08.24.2.26.27.04.51.08.76.24.34.22.77.32,1.21.34.22,0,.45.07.67.11,0,.03,0,.05-.01.08-.15,0-.32.05-.46.02-.57-.11-1.17-.05-1.7-.31-.24-.12-.53-.17-.79-.26-.11-.04-.2-.11-.3-.16-.07-.03-.16.01-.26.02-.68.1-1.36.1-2.02-.1-.91-.27-1.84-.4-2.81-.32-.41.04-.84,0-1.26-.02-.75-.04-1.5,0-2.22.19-.43.12-.77.37-1.08.72.11.02.16.04.21.03.58-.02,1.17-.04,1.75-.06.88-.02,1.72-.17,2.42-.71-.15.27-.34.47-.66.58-1.02.34-2.07.4-3.15.31-.27-.02-.55-.06-.8,0-.47.1-.93.26-1.39.39-.55.16-1.11.3-1.69.27-.44-.03-.82.09-1.2.28-.81.41-1.64.8-2.53,1.07-.4.12-.77.33-1.13.54-.33.2-.62.46-.94.67-.21.14-.45.24-.67.36-.36.18-.79.22-1.08.56-.27.31-.66.54-1.01.79-.19.14-.45.2-.59.37-.45.52-.87,1.07-1.3,1.6-.02.03-.05.07-.09.08-.32.06-.55.23-.72.47-.25.35-.5.7-.73,1.05-.19.29-.37.58-.56.87.02.01.04.02.06.04.12-.13.23-.27.36-.4.53-.53,1.06-1.06,1.58-1.59.22-.22.38-.49.61-.7.37-.34.79-.63,1.17-.97.19-.17.33-.37.49-.56.04.12.04.25-.02.35-.3.58-.89.9-1.43,1.25-.37.24-.65.52-.87.87-.33.52-.73,1-1.25,1.37-.28.2-.52.43-.65.74-.23.53-.49,1.06-.73,1.59-.06.13-.08.27-.11.4.04.02.08.04.12.06.02-.04.02-.08.05-.12.19-.24.38-.47.57-.7.25-.29.52-.57.75-.87.27-.37.51-.76.52-1.23v.52s.08-.03.13-.04c-.22.38-.41.75-.63,1.1-.08.13-.2.24-.32.33-.22.18-.53.3-.68.51-.22.32-.39.68-.5,1.05-.15.52-.22,1.06-.51,1.54-.21.35-.22.74-.1,1.11.2.67.02,1.3-.24,1.92-.06.14-.05.23.06.34.1.11.25.21.28.33.12.48.17.97.01,1.45-.11.35-.17.37-.55.28-.02,0-.04,0-.08.02-.05.13-.1.28-.14.41-.03-.42-.07-.87-.1-1.31h-.08c.05.64.11,1.27.16,1.9.07-.25.01-.54.35-.69-.07.19-.17.37-.18.55-.03.43.17.82.39,1.19.07.13.22.22.34.32.11.19.22.37.33.56.11-.15.21-.28.31-.41-.31,1.1.18,1.88,1.21,2.43.3-.14.45-.38.34-.69-.12-.32-.33-.62-.44-.94-.15-.41-.48-.64-.86-.85-.14-.08-.19-.02-.26.06Zm41.77-4.29c-.16-.39-.33-.8-.5-1.21,0,0-.05,0-.13,0,.07-.08.11-.14.17-.21q-.54.18-1.42-.31c.06.11.11.18.12.19-.15.29-.29.52-.39.77-.05.12,0,.27-.01.4-.04.4-.11.81.21,1.17-.07,0-.1.02-.14.02-.55-.05-.52-.04-.79.39-.29.45-.11.96-.32,1.41-.04.09.12.25.21.37.04.05.12.08.18.12-.12,0-.22-.06-.31-.05-.19.02-.47.01-.55.12-.32.43-.55.9-.45,1.44.01.06-.05.12-.08.19.36.04.59.26.8.5.1.11.26.29.4.15.27-.25.55-.53.69-.84.13-.29.13-.61.33-.89.16-.22.22-.48.51-.64.2-.11.43-.27.41-.56-.03-.44-.09-.89-.04-1.32.08-.78.44-1.12,1.12-1.21Zm-34.85,11.57c.06-.13.18-.28.18-.43,0-.15-.08-.39-.19-.43-.31-.1-.42-.4-.4-.53.06-.29-.14-.38-.3-.48-.43-.28-.86-.59-1.34-.78-.53-.21-.91-.11-.87.45.04.52.86,1.7,1.35,1.97.05.03.1.04.15.06.65.32,1.41.56,1.74,1.2.31.61.82.91,1.48,1.1.02,0,.03.02.05.02.29.05.58.14.87.14.36,0,.57-.16.62-.41.04-.22-.11-.42-.41-.53,0-.19,0-.18-.18-.28-.1-.06-.14-.18-.22-.29-.16-.04-.36-.08-.58-.13.04-.05.07-.1.13-.18-.13.01-.22.02-.31.02-.03-.08-.08-.12-.14-.14-.2-.07-.4-.13-.59-.2-.12-.05-.23-.15-.35-.17-.25-.03-.51,0-.68,0Zm6.36,4.57c.13-.28.07-.55.23-.77.03-.04,0-.15-.05-.18-.18-.13-.36-.25-.56-.35-.24-.13-.53-.21-.75-.36-.19-.13-.3-.38-.61-.25-.02,0-.05,0-.08-.02-.18-.07-.37-.13-.59-.22,0,.02,0-.04,0-.01-.54-.35-1.05.08-1.41,0,.1.11.28.33.49.53.3.3.62.57,1.06.71.78.24,1.6.39,2.27.91Zm-9.39-7.09s-.08-.08-.12-.12c.27-.31.27-.5-.02-.8-.04-.04-.06-.1-.09-.15-.16-.27-.26-.57-.57-.74-.04-.02-.06-.07-.08-.11-.21-.37-.84-.75-1.3-.61-.2.55.04,1.36.63,1.89.42.37.89.7,1.56.65Zm8.95-26.66c-.94.19-1.83.42-2.6.93-.32.21-.65.4-.98.58-.17.09-.36.14-.54.21,0-.02-.02-.03-.02-.05.08-.05.15-.1.23-.15-.13.02-.25.07-.35.13-.29.16-.59.32-.88.49-.59.37-1.21.71-1.61,1.27-.06.08-.08.19-.12.29.03.01.05.03.08.04,1.01-.67,2.02-1.35,3.06-2.05-.03.13-.04.22-.07.34.12-.04.2-.06.28-.09.29-.14.57-.28.84-.45.5-.32,1.06-.55,1.6-.81.07-.04.15-.08.23-.1.37-.08.65-.27.86-.57Zm.88,33.5s0,.03.01.04c-.09.02-.18.05-.31.08.06.05.12.08.12.1,0,.39.33.53.64.65.39.14.8.24,1.2.33.59.13,1.13.09,1.5-.45-.06-.02-.15-.07-.24-.09-.1-.02-.21,0-.34,0,.05-.09.08-.14.12-.23-.33-.07-.64-.12-.94-.2-.18-.05-.36-.12-.51-.22-.43-.28-.92-.12-1.39-.21-.03.08-.05.14-.07.21h.2Zm28.06-12.95c.4,0,.7-.23.88-.62.17-.37.2-.76.18-1.15-.02-.35-.16-.63-.49-.82-.27-.16-.45-.1-.53.18-.05.2-.08.4-.13.59-.14.61-.35,1.23.09,1.81ZM71.22,1.72c-.4,0-.89,0-1.38,0-.19,0-.41-.03-.58.03-.62.2-1.24.42-1.84.65-.28.11-.41.35-.5.67.36-.04.69-.03.99-.12.71-.2,1.41-.44,2.11-.65.17-.05.37-.04.51-.11.27-.15.5-.34.69-.47Zm23.84,24.66l-.05-.02c0-.08,0-.18-.03-.25-.08-.13-.17-.31-.3-.35-.11-.03-.32.07-.42.17-.49.49-.78,1.08-1.01,1.69-.16.4.05.61.52.5.14-.03.3-.11.4-.21.19-.2.36-.41.49-.64.16-.29.28-.59.42-.89Zm-.84-13c.05.32.1.61.16.9.04.19.07.39.17.55.21.36.46.71.71,1.06.05.07.17.15.24.14.09-.01.24-.1.25-.17.04-.27.08-.55.05-.82-.09-.77-.59-1.31-1.27-1.72-.13-.08-.35-.03-.53-.03-.01,0-.03.09-.05.16.08-.02.11-.03.15-.03.04-.01.09-.03.13-.04Zm-4.81,18.29c.66.03,1.23-.14,1.67-.51.39-.33.72-.69.71-1.2,0-.11-.11-.31-.2-.32-.21-.03-.44.02-.66.04,0,0,0,.04-.02.06-.09.16-.15.36-.28.49-.3.29-.65.54-.95.83-.16.16-.5.29-.29.61Zm-30.68-.27c-.2-.3-.45-.55-.55-.84-.05-.16-.19-.14-.25-.24-.18-.26-.46-.46-.7-.68-.1-.09-.26-.14-.31-.24-.16-.32-.33-.48-.64-.5-.11.27-.06.53.07.78.06.12.13.24.21.34.21.29.4.59.65.84.21.21.49.35.74.53q.39.28.76.01s0-.02,0,0Zm.14.25c.01.18-.01.32.04.45.15.39.38.75.76.98.47.29.97.53,1.45.8.19.11.29-.03.36-.13.04-.06.02-.21-.04-.27-.12-.14-.36-.22-.4-.37-.08-.26-.29-.36-.47-.52-.11-.1-.2-.22-.33-.37-.39-.16-.84-.36-1.36-.58Zm36.52-8.37c-.16.48-.31.93-.47,1.41.02.04.06.11.13.22-.15-.07-.25-.12-.35-.16-.02.02-.04.03-.06.05.08.1.16.21.23.31-.1.12-.21.3-.15.41.07.13.27.21.43.33,0,0-.03.07-.06.16.07,0,.1.01.12,0,.03-.01.07-.03.09-.06.2-.25.41-.49.6-.74.06-.08.09-.18.1-.27.04-.34.06-.69.1-1.03.04-.35-.12-.55-.49-.6-.06,0-.13-.01-.21-.02Zm-.26-4.89c.02.09.04.17.06.26.11-.03.23-.05.33-.1.06-.03.1-.1.13-.16.25-.56.2-1.11-.05-1.65-.16-.35-.52-.51-.92-.58-.06,0-.16.09-.21.15-.02.03.05.11.09.16.04.04.09.08.14.11-.02,0-.05,0-.07,0,0,.09-.03.18-.02.27.01.28.04.55.06.87.01,0,.09.05.16.1-.03,0-.05,0-.08.01,0,.17-.03.34.02.5.02.05.26.03.37.04Zm-10.3,17.17s.01.04.02.06c.04,0,.07,0,.11,0,.79-.07,1.46-.38,2.04-.86.29-.24.41-.66.27-.91-.94.17-2.14,1-2.18,1.53.09,0,.18.02.26.03,0,.01,0,.02,0,.03-.17.04-.34.08-.52.11Zm-1.91-1.96s-.02-.02-.04-.03c-.09.03-.18.07-.28.1.28.52-.42.4-.54.72.48.05.95.11,1.41.13.33.01.61-.12.83-.35.16-.16.19-.47.08-.61-.13-.17-.47-.28-.67-.2-.28.11-.62.12-.82.37-.01.01-.05,0-.1.01.05-.06.09-.11.12-.15Zm14.03-15.85c.3.02.62-.03.76-.27.28-.46-.03-1.42-.52-1.71-.15-.09-.33-.15-.49-.23-.24-.13-.43-.09-.57.13-.05.07-.07.16-.13.22-.49.45-.12,1.66.49,1.94-.65-.92-.63-1.7.07-2.24.13.16.26.31.37.47.29.42.37.6.18.98-.09.19-.19.35-.16.58h.37s0,.02,0,.03c-.12.03-.25.06-.37.09Zm-17.59,20.08c0-.06.01-.13,0-.13-.28-.08-.54-.1-.8.09-.11.08-.29.09-.45.13-.05.01-.09.03-.16.05.16.09.29.2.44.23.27.07.56.15.84.15.74-.01,1.52.02,2-.66.06-.08.1-.17.14-.25-.76-.11-1.35.25-2.01.4Zm2.01-.87q.38.28.83.27c.09,0,.19,0,.28-.01.64-.09,1.26-.24,1.77-.63.2-.15.37-.33.41-.59-.44-.12-.79-.02-1.15.18-.36.2-.77.34-1.16.49-.12.05-.25.07-.38.11,0,.04.02.12,0,.2-.01.04-.09.06-.13.09-.11-.23-.32-.01-.46-.11Zm9.54-7.53c.66.03,1.08-.41.99-1-.04-.28-.18-.39-.49-.39-.28,0-.49.09-.59.34-.02.05-.06.11-.1.15-.19.18-.42.33-.58.52-.08.1-.05.26-.07.4.11.01.21.04.31.03.18,0,.35-.03.53-.05Zm3.57-18.11c0,.26.25.46.39.66.27.38.22.84.48,1.2.06.08.1.17.15.25.05.08.08.16.14.23.07.09.15.19.26.23.05.02.21-.11.23-.19.04-.16.05-.34,0-.5-.18-.67-.54-1.26-1.06-1.77-.16-.16-.31-.39-.59-.12Zm-16.46,25.73s-.05-.05-.08-.08c-.48.17-.96.15-1.45.09-.61-.07-.99.45-1.55.59.34.09.67.13,1.01.18.69.11,1.34.05,1.87-.43.1-.09.13-.24.19-.36ZM73.24,1.22c.08.02.13.03.18.03.89.08,1.79.07,2.67-.07.33-.05.65-.18.97-.29.08-.03.14-.12.18-.16-.71,0-1.41-.04-2.1.01-.64.05-1.34-.03-1.9.47Zm-17.26,27.98c-.07-.29-.1-.57-.2-.82-.1-.26-.23-.55-.44-.73-.18-.16-.32-.31-.43-.51-.14-.25-.3-.49-.45-.73-.04,0-.09.02-.13.03,0,.2-.05.42,0,.61.25.87.58,1.7,1.64,2.16Zm30.46,4.02c.21.21.42.24.63.16.25-.09.51-.18.72-.32.29-.2.52-.45.8-.66.18-.14.19-.3.08-.45-.12-.16-.3-.11-.45-.03-.19.1-.38.23-.57.34-.27.16-.54.31-.81.47-.03.02-.04.07-.06.11.09.01.16.02.23.03-.2.12-.37.23-.57.36Zm-22.57,2.34c.25.56.8.76,1.34.95.48.17.96.31,1.45.45.11.03.24.02.35,0,.25-.06.28-.17.1-.34-.06-.05-.1-.11-.15-.16-.07,0-.16.02-.24,0-.46-.13-.92-.27-1.38-.42-.16-.05-.35-.07-.46-.17-.22-.21-.31-.07-.39.06-.13-.11-.25-.21-.39-.34h.22s0-.05,0-.07c-.16.01-.33.03-.46.04Zm-.15-.08c.31-.06.33-.1.22-.33-.12-.25-.41-.33-.62-.48-.21-.15-.47-.23-.71-.33-.31-.13-.62-.26-.94-.38-.18-.07-.25.03-.21.17.03.1.08.22.17.28.23.18.46.37.73.5.44.21.9.38,1.36.56Zm33.02-9.36c-.28.32-.54.62-.81.94.09,0,.16,0,.31-.02-.22.15-.57.07-.46.44.05.17-.2.4-.31.6.03,0,.07,0,.15.02-.11.07-.18.11-.31.2.12.04.2.09.24.07.21-.1.43-.2.61-.34.59-.47.79-1.09.81-1.77,0-.1-.05-.21-.07-.31-.13.04-.22.06-.32.09.07.04.13.06.18.09Zm-6.71-21.21c-.03.42.27.61.49.82.2.2.48.33.71.5.31.25.61.51.92.76.04.03.22.02.23-.01.04-.09.08-.23.03-.29-.27-.32-.53-.65-.85-.92-.33-.28-.72-.5-1.1-.73-.11-.07-.27-.08-.42-.13ZM73.53.89c-1.44-.1-2.82.03-4.09.71,1.43.08,2.78-.24,4.09-.71Zm13.6,2.12c.14-.19.05-.34-.14-.46-.09-.06-.19-.11-.29-.15-.71-.26-1.43-.53-2.15-.78-.06-.02-.18.04-.23.1-.03.03.02.17.08.19.61.27,1.23.53,1.84.78.29.12.58.21.88.32Zm9.68,15.65c.08.53.16,1.03.24,1.56.08-.03.26-.05.29-.12.12-.24.24-.5.25-.76.02-.36-.07-.71-.11-1.06q-.62-.06-.82.29c.07.04.13.08.14.08Zm-25.78,18.73c.47.49,1.06.64,1.68.74.42.07.83-.12.92-.39-.82-.35-1.69-.37-2.6-.35Zm27.45-15.13c.1-.1.22-.17.27-.27.09-.18.2-.38.21-.57.02-.39,0-.79-.04-1.18,0-.06-.18-.13-.29-.15-.04,0-.15.1-.16.17-.06.32-.12.65-.12.98,0,.21.03.4-.22.51.11.16.21.31.35.51Zm-30.95,15.12s-.04.06-.06.09c.14.11.26.27.42.31.72.2,1.45.37,2.18.53.19.04.36-.03.41-.27-.49-.13-.96-.31-1.44-.37-.51-.06-.97-.38-1.5-.3Zm-3.59-.69c.95.81,2.42,1.42,3.11,1.25-.36-.17-.68-.4-1.04-.49-.67-.15-1.1-.57-1.57-.97-.17.07-.34.14-.5.21Zm-7.17-5.47c.03.5,1.45,1.89,2.31,2.21-.22-.17-.39-.3-.57-.43.11-.02.2-.04.29-.05-.62-.65-1.14-1.37-2.03-1.73ZM69.38,1.35c-1.12,0-3.15.74-3.71,1.37,1.24-.4,2.45-.84,3.71-1.37Zm-15.46,24.64c.03-.19.12-.37.07-.51-.12-.33-.29-.65-.46-.97-.04-.08-.15-.12-.23-.18-.05.09-.16.2-.14.27.17.6.36,1.2.56,1.8.05.14.18.19.31.1-.01-.18-.03-.33-.04-.51-.02,0-.08-.01-.07-.01Zm10.06,10.42c-.24-.34-.6-.53-.99-.67-.28-.11-.57-.21-.85-.33-.23-.1-.45-.21-.67-.31-.03.03-.06.07-.09.1.17.16.32.38.53.48.65.33,1.24.82,2.07.73ZM84.25,1.48c-.65-.31-1.35-.44-2.05-.58-.2-.04-.42-.11-.58.12.19.07.37.16.56.22.53.17,1.06.32,1.58.48.34.11.37.1.48-.23Zm9.41,7.31c-.14.06-.08.13.03.24.2.18.56.18.67.48.01.03.13.04.25.06-.06-.89-.81-1.28-1.41-1.79-.06.1-.12.2-.14.23.21.27.39.51.59.78Zm-32.53,26.03c-.55-.64-1.11-1.17-1.91-1.51.05.57,1.24,1.54,1.91,1.51Zm35.62-21.09c.02.21.04.39.06.57.12,0,.21.01.34.02v.44c.06.05.15.08.18.13.08.16,0,.36.22.49.12.07.15.27.22.41.04-1.03-.05-1.7-1.02-2.08Zm-26.35,24.71c.36.43,2.14.72,2.63.45-.18-.09-.31-.21-.47-.24-.27-.06-.55-.07-.82-.09-.45-.04-.89-.08-1.34-.12ZM90.39,4.3s-.04.04-.06.06c.4.34.8.68,1.2,1.02.4.35.79.72,1.19,1.08.12-.15.05-.51-.15-.64-.72-.51-1.45-1.01-2.17-1.52Zm8.53,13.08c-.27.67-.21,1.29.02,1.9.3-.02.39-.2.4-.45.01-.51-.21-.96-.42-1.45Zm-4.28,11.51c-.09.11-.12.16-.16.2-.12.14-.22.34-.38.41-.36.17-.55.44-.79.78.1.06.21.12.33.18.68-.43,1.05-.98,1-1.58Zm.62-18.68c.08.27-.07.58.17.81.22.21.47.41.71.62.07-.5-.62-1.55-1.17-1.78q.14.35.28.35Zm-37.11-2.76s.06.06.09.08c.28-.23.56-.45.83-.68.28-.23.58-.46.84-.71.25-.24.46-.52.68-.78-.86.65-1.75,1.28-2.44,2.09Zm-4.12,6.31s-.05-.01-.07-.02c-.32.82-.65,1.64-.79,2.53.29-.04.35-.23.39-.4.16-.7.31-1.4.47-2.11Zm16.01,25.44c-.74-.37-1.64-.34-2.37-.73-.06-.03-.16,0-.27,0,.18.28,2.12.82,2.64.72ZM81.43.82s-.03-.09-.04-.14c-.97-.13-1.94-.26-2.91-.4,0,.02-.01.05-.02.07.06.02.11.05.17.06.82.17,1.64.35,2.47.51.1.02.22-.07.32-.11Zm-22.03,33.49c-.03.39.76,1.05,1.87,1.62.02-.02.03-.03.05-.05-.64-.52-1.27-1.04-1.92-1.57Zm11.32,3.01c-.11.03-.25.07-.44.11.22.19.38.41.6.49.23.09.52.04.78.05-.31-.21-.6-.42-.94-.66Zm17.17-1.36c1-.15.85-.03,1.52-.81-.27-.1-.26-.1-.35.16-.02.06-.12.13-.2.15-.1.03-.22,0-.32,0-.09.27-.36.4-.65.29v.21Zm-12.16,2.82c-.61-.25-1.73-.42-2.03-.29.65.24,1.32.37,2.03.29Zm20.29-29.33s0,.06,0,.07c.27.36.65.66.76,1.12.01.06.17.35.42.11-.34-.52-.64-1.06-1.18-1.46.07.09.14.18.22.27-.01,0-.02.01-.03.02-.06-.04-.12-.09-.2-.14ZM62.94,3.69s.03.05.04.07c.22-.09.45-.18.67-.28.42-.18.85-.36,1.27-.56.07-.03.11-.13.16-.2-.02-.02-.04-.04-.06-.06-.69.34-1.38.69-2.08,1.03Zm31.9,4.65c-.4-.43-.76-.89-1.29-1.19.1.15.34.22.24.45.27.29.55.59.82.88.1-.06.17-.1.24-.14Zm-38.93,22.34c-.19-.95-.43-1.31-.94-1.4.33.49.63.94.94,1.4Zm41.24-18.73c-.03.1-.08.17-.06.22.15.31.32.62.49.92.09.15.16.29-.05.41.13.05.24.1.41.17-.3-.58-.24-1.23-.8-1.71Zm-8.2,21.93c.65.05,1.5-.39,1.63-.86-.16.05-.29.06-.38.13-.29.21-.46.56-.88.64-.12.02-.24.06-.36.1Zm4.4-1.76c-.15.11-.24.23-.37.27-.25.09-.51.14-.77.2,0,.02,0,.04,0,.07.05,0,.11.02.16,0,.09-.03.17-.09.26-.11.1-.02.22-.03.32,0,.31.05.46-.04.74-.5-.19-.02-.37-.04-.54-.06,0,.02,0,.04-.01.06.05.02.09.04.2.08Zm6.69-11.98c-.22.16-.46.26-.13.5-.24,0-.3.12-.23.25.03.06.17.07.3.12v.29s.04,0,.07,0v-1.16Zm-37.54,16.65c.49.29.95.64,1.57.72-.43-.41-1.02-.53-1.57-.72Zm10.92,2.81c.6-.02,1.19.13,1.79,0-.59-.17-1.18-.16-1.79,0ZM89.59,3.99c-.36-.14-.65-.26-1.01-.4.16.32.53.46,1.01.4Zm-36.35,12.39s-.07-.01-.1-.02c-.1.39-.2.77-.3,1.16.03,0,.06.01.09.02.33-.34.16-.78.31-1.16Zm45.33,9.9s-.04-.05-.06-.07c-.12.08-.3.13-.35.24-.04.08.08.22.12.34.02,0,.05-.01.07-.02.07-.16.15-.32.22-.48Zm-2.42,3.25s.13-.04.15-.09c.08-.15.16-.3.21-.46.02-.05-.04-.12-.07-.18-.04.04-.1.08-.12.14-.06.19-.11.38-.18.6Zm-7.32-26.35s-.04.06-.06.09c.38.24.75.47,1.13.71l.06-.08c-.38-.24-.75-.48-1.13-.71Zm6.86,27.03c.19-.21.34-.38.53-.59-.44.02-.47.29-.53.59ZM56.72,9.01s.04.03.06.04c.3-.35.61-.7.91-1.04l-.06-.04c-.3.35-.6.7-.91,1.05Zm-1.21,17.87c.12.17.23.32.36.5-.02-.21-.04-.37-.06-.57-.1.02-.18.04-.3.07Zm42.17-9.18s-.04-.03-.06-.05c-.11.07-.22.13-.3.18.04.08.07.14.12.22.09-.13.16-.24.24-.35Zm-7.92-13.07s-.01.07-.02.11c.13.02.26.05.39.07,0-.05,0-.16,0-.16-.12-.02-.24-.02-.37-.02Zm-11.95-4.07s0,.03,0,.05h.72v-.05h-.71Z"/>
    <path class="cls-1" d="m97.68,17.7c-.08.11-.15.22-.24.35-.05-.08-.08-.14-.12-.22.08-.05.19-.12.3-.18.02.02.04.03.06.05Z"/>
    <path d="m81.37,36.01c-.11-.05-.21-.11-.32-.16,0-.02.01-.03.02-.05h.49c-.05.06-.11.13-.18.2,0,0-.01,0-.01,0Z"/>
    <path d="m78.23,31.45c-.28-.38.01-1.3.67-1.6.48-.22.97-.41,1.53-.46.55-.04,1.06.02,1.59.22.04-.85.64-1.33,1.38-1.66.66-.29,1.38-.33,2.09-.08-.5-.06-.91.14-1.3.39-.13.08-.23.2-.32.33-.1.14-.2.23-.41.22-.37,0-.56.14-.68.47-.01.04-.03.08-.05.12-.01.02-.04.04-.01.02-.15-.01-.27-.03-.44-.04.08.11.13.16.18.23-.11.02-.21.04-.32.07.09.11.17.2.24.29-.02.02-.03.03-.05.05-.07-.05-.13-.11-.2-.15-.16-.1-.31-.25-.48-.3-.55-.13-1.12-.12-1.62.15-.26.15-.42.44-.67.62-.21.15-.49.23-.72.35-.1.06-.23.13-.27.23-.08.17-.1.37-.15.54Z"/>
    <path d="m87.34,30.06c-.09.08-.17.16-.27.23-.23.16-.5.3-.71.49-.18.16-.31.37-.64.34.08.11.13.18.19.28-.54-.21-.63-.71-.24-1.06.44-.39.95-.66,1.57-.76.47-.08.88.09,1.32.21-.48-.19-.86.08-1.27.22.01.02.02.04.03.06Z"/>
    <path d="m88.74,26.27c-.14.05-.25.08-.34.13-.17.09-.37.12-.38.39,0,.14-.26.27-.38.41-.12.15-.21.31-.32.46-.09.12-.17.25-.29.33-.18.13-.31.26-.26.5-.32-.45-.28-1.12.07-1.51.52-.59,1.43-.94,1.9-.72Z"/>
    <path d="m90.96,18.73c.02.11.03.19.05.27.07-.03.14-.06.29-.12-.04.12-.06.19-.09.25-.08.18-.19.34-.09.57.07.16-.04.39-.07.59-.03.16-.08.33-.09.49,0,.06.07.13.12.17.08.05.18.08.27.12-.12.05-.23.14-.35.15-.09,0-.23-.05-.28-.12-.14-.21-.28-.44-.36-.68-.23-.67-.01-1.23.6-1.7Z"/>
    <path d="m82.43,32.31c-.09-.55.24-.9.71-1.16.58-.31,1.22-.41,1.88-.36.05,0,.1.03.13.04-.39.11-.78.22-1.18.33,0,.03.02.06.03.1.08-.02.17-.03.3-.06-.21.27-.45.38-.78.34-.29-.04-.36.02-.42.29-.01.07-.1.13-.16.17-.16.1-.32.19-.51.3Z"/>
    <path d="m89.75,23.99c-.53.13-1.01.27-1.26.72-.14.25-.25.51-.38.76-.04.07-.09.14-.15.23.09.09.19.19.32.32-.5-.21-.69-.71-.47-1.24.26-.64,1.1-.99,1.96-.77Z"/>
    <path d="m85.26,24.67c-.09.09-.15.16-.21.22-.03.03-.11.04-.11.06.02.26-.21.25-.35.3-.09.19-.16.35-.24.51-.5.02-.58.5-.94.67-.27-.69.85-1.81,1.85-1.76Z"/>
    <path d="m89.45,23.16c-.21-.05-.34-.09-.49-.13-.02.05-.04.11-.05.17-.02,0-.04,0-.06,0,0-.11.01-.22.02-.33.08-.73.97-1.63,1.65-1.61-.1.11-.17.19-.25.28.02,0,.06.03.09.04-.12.13-.25.26-.37.4.01,0,.03.02.04.02-.09.04-.22.07-.25.13-.03.07.04.18.07.31-.09-.02-.19-.04-.34-.07-.17.1-.24.42-.06.78Z"/>
    <path d="m78.27,34.03c-.13-.26-.04-.49.13-.7.41-.48,1-.65,1.62-.75.16-.03.32-.04.47-.04.08,0,.16.02.24.04,0,.03,0,.05,0,.08-.11.02-.22.04-.33.06-.22.05-.44.09-.64.16-.09.03-.28.05-.2.23,0,.02-.18.15-.27.14-.31-.02-.48.16-.66.33-.14.13-.24.29-.37.45Z"/>
    <path d="m82.56,2.77c.01.12.05.24.03.35-.07.37.04.59.41.77.62.3,1.24.61,1.88.88.29.13.63.17.94.29-.44-.08-.88-.17-1.37-.26.24.18.47.37.22.72.13-.39-.15-.56-.37-.73-.25-.19-.54-.32-.82-.47-.41-.22-.87-.41-1.05-.87-1.19.25-2.31.02-3.41-.41.1.03.21.06.31.09.83.25,1.67.4,2.55.32.39-.03.6-.16.64-.38.02-.1-.02-.21-.02-.31h.06Z"/>
    <path d="m86.43,3.7s.05-.05.05-.05c.36.27.7.57,1.09.79.38.22.82.37,1.24.54.19.08.4.13.59.19,0,.02,0,.04-.01.07-.2-.04-.4-.09-.6-.13-.01.02-.03.04-.04.06.14.1.29.18.42.3.12.12.22.26.32.39h0c-.46-.44-1.01-.75-1.61-1.01-.59-.25-1.1-.62-1.44-1.15h0Z"/>
    <path d="m87.36,19.29c-.03.06-.03.12-.07.16-.19.22-.41.42-.59.66-.08.11-.06.27-.1.4-.08.23-.18.47-.28.74-.36-.74.25-1.86,1.04-1.95Z"/>
    <path d="m65.26,5.78c-.2.29-.37.6-.59.87-.33.39-.69.75-1.05,1.13.08-.16.17-.32.26-.47-.31.1-.62.24-.95.31-.33.06-.67.05-1.01.05,1.51-.06,2.5-.84,3.28-1.92l.07.04Z"/>
    <path d="m86.44,3.7h-.45c.06.09.1.14.14.19-.02,0-.04,0-.05,0-.46-.21-.93-.42-1.39-.63-.27-.12-.55-.24-.82-.38-.23-.12-.2-.56.02-.68-.08.21.12.53.44.67.28.13.56.28.85.39.41.16.82.29,1.24.43,0,0,0,0,0,0Z"/>
    <path d="m67.87,3.37c-.63,1.12-1.78,1.51-3,1.81,1.05-.54,2.25-.87,3-1.81Z"/>
    <path d="m74.55,2.3c.08.03.16.07.24.1.93.34,1.88.55,2.89.36.3-.06.57-.21.82-.31-.12.2-.36.33-.66.4-.69.16-1.39.14-2.08,0-.29-.06-.58-.14-.85-.23-.15-.05-.28-.15-.41-.23.02-.02.03-.05.05-.07Z"/>
    <path d="m71.19,32.56c.41-.42,1.92-.34,2.42.06-.44-.01-.96-.04-1.48-.04-.31,0-.62.05-.93.08,0-.03,0-.06-.01-.09Z"/>
    <path d="m70.06,30.3c-.03.06-.05.1-.05.1-.45-.11-.89-.18-1.31-.32-.47-.16-.88.1-1.34.13.29-.41,1.44-.51,2.7.08Z"/>
    <path d="m89.17,16.27c-.53.07-.85.37-1.04.8,0,.02-.01.05-.03.07-.07.06-.17.1-.22.17-.04.06-.02.15-.03.24.07.02.15.04.31.09-.57.23-.35.58-.24.93-.31-.32-.4-1.01-.15-1.44.29-.5.75-.81,1.4-.87Z"/>
    <path d="m86.19,22.11c-.16.12-.32.24-.48.36-.09.07-.22.12-.27.21-.3.48-.69.95-.61,1.55,0,.02,0,.05-.02.08-.49-.56.38-2.03,1.38-2.2Z"/>
    <path d="m62.24,5.93c.39-.2.8-.37,1.16-.61.36-.24.66-.54,1.01-.8-.42.82-1.2,1.22-2.09,1.5-.03-.03-.05-.06-.08-.09Z"/>
    <path d="m76.03,31.19c-.8.08-1.39.47-1.86,1.11.01-.71,1.19-1.39,1.86-1.11Z"/>
    <path d="m89.37,6.61c-.13.04-.26.09-.4.13.04.05.09.1.13.15-.27.15-2.21-1.04-2.55-1.59.35.26.64.48.95.68.56.38,1.12.74,1.88.63,0,0,0,0,0,0Z"/>
    <path d="m58.2,9.55c.02.51-.27.88-.57,1.21-.3.33-.72.55-1.12.79.75-.53,1.25-1.22,1.69-2Z"/>
    <path d="m61.99,6.14c-.38.8-.9,1.46-1.86,1.76.06-.07.09-.14.16-.18.55-.31,1-.69,1.32-1.2.09-.15.25-.26.38-.38Z"/>
    <path d="m60.6,26.08c.34-.35.53-.76.33-1.21-.36-.85-.84-1.46-2.21-1.54.69-.12,1.22.16,1.68.58.33.3.59.66.69,1.1.11.47-.14.79-.49,1.07Z"/>
    <path d="m56.03,13.68c.48-.21.69-.62.92-1.01.22-.38.4-.78.58-1.12.06.59-.63,1.94-1.5,2.13Z"/>
    <path d="m61.9,10.41c.62-.19,1-.58,1.38-.95.34-.32.4-.75.29-1.19-.01-.05-.03-.11.02-.18.05.14.13.27.15.42.14.89-1.03,1.81-1.84,1.9Z"/>
    <path d="m54.28,23.98c-.05-.05-.1-.1-.2-.2.04.2.07.34.1.48-.02,0-.04.02-.07.02-.03-.05-.06-.11-.08-.14-.14.03-.27.06-.39.09.47-.57.42-1.25-.11-2.02.04.03.09.06.12.09.3.32.43.7.5,1.11.03.19.08.38.12.57Z"/>
    <path d="m68.55,4.71c.02.74-1.75,1.53-2.52,1.4,1.04-.21,1.98-.51,2.52-1.4Z"/>
    <path d="m54.43,15.5c.28-.53.55-1.06.83-1.6.03.01.06.03.09.04-.18.57-.39,1.13-.92,1.56Z"/>
    <path d="m59.04,11.61c.55-.55,1.25-1.03,1.14-1.92.25.78-.35,1.6-1.14,1.92Z"/>
    <path d="m80.65,23.78c-.03-.54.44-1.11,1.24-1.4-.06.09-.07.15-.12.18-.37.2-.7.44-.9.8-.08.15-.16.3-.23.42Z"/>
    <path d="m71.46,3.85c.91.42,1.83.44,2.8.13-.57.45-2.19.38-2.8-.13Z"/>
    <path d="m68.58,4.32c.78-.22,1.68-.47,2.59-.72-.87.36-1.74.72-2.59.72Z"/>
    <path d="m54.65,15.87c0,.2.03.41,0,.61-.08.41-.2.82-.29,1.23-.03.14-.05.29-.09.44,0-.14-.03-.28,0-.4.15-.55.3-1.1.31-1.67,0-.07,0-.14,0-.21.02,0,.05,0,.07,0Z"/>
    <path d="m89,8.88c.13.01.21.02.26.02.24.27.46.52.68.78-.02.02-.04.03-.06.05-.41-.17-.58-.53-.88-.84Z"/>
    <path d="m78.32,27.39c.2-.48.5-.86,1.03-1.08-.34.35-.68.71-1.03,1.08Z"/>
    <path d="m62.59,12.98c.43.59.11,1.5-.61,1.75.61-.48.9-1.03.61-1.75Z"/>
    <path d="m61.61,17.39c.27-.53.72-1.02.23-1.67.5.35.39,1.15-.23,1.67Z"/>
    <path d="m89.48,5.85c.17.12.34.25.5.37-.02.02-.04.04-.06.06-.1.13-.21.26-.32.4-.06-.02-.15-.05-.24-.08,0,0,0,0,0,0,.38-.21.22-.49.12-.77,0,0,0,0,0,0Z"/>
    <path d="m72.07,25.64c-.66.14-1.25.37-1.56.97.02-.54,1.02-1.04,1.56-.97Z"/>
    <path d="m58.88,9.33c.63-.24.94-.45,1.19-1.08.05.5-.52,1.04-1.19,1.08Z"/>
    <path d="m88.29,14.35c-.07.66.25,1.17.72,1.62-.54-.19-.89-.98-.72-1.62Z"/>
    <path d="m60.51,8.77c.48-.25.96-.48,1.13-1.06,0,.5-.48.94-1.13,1.06Z"/>
    <path d="m63.95,25.48c.27-.68.31-.82-.08-1.78.41.41.45,1.38.08,1.78Z"/>
    <path d="m58.79,20.62c.2.54.27,1.01-.06,1.47.05-.23.13-.46.14-.69.01-.24-.05-.48-.08-.78Z"/>
    <path d="m68.48,15.69c.42.46.51.94.2,1.2.15-.44.03-.83-.2-1.2Z"/>
    <path d="m70.66,28.11c.35.43.51.89.17,1.39.21-.49.1-.95-.17-1.39Z"/>
    <path d="m64.32,10.65c.56-.61.61-.71.68-1.18.12.38-.14.86-.68,1.18Z"/>
    <path d="m77.63,23.34c-.35.35-.55.76-.62,1.23-.02-.5.19-.91.62-1.23Z"/>
    <path d="m55.93,18.52c.22-.47.35-.94.28-1.44.18.53,0,1-.28,1.44Z"/>
    <path d="m61.34,20.2c.02-.37.05-.77.07-1.07.11.31.1.71-.07,1.07Z"/>
    <path d="m70.75,5.82c-.43.23-.87.17-1.3.16.42-.05.84-.1,1.3-.16Z"/>
    <path d="m87.39,7.64c.22.22.47.46.68.67-.31-.03-.59-.29-.68-.67Z"/>
    <path d="m56.56,14.45l-.22,1.01s-.06-.01-.09-.02c.09-.33.18-.66.28-.99.01,0,.02,0,.03,0Z"/>
    <path d="m61.03,22.01c.2.42.22.83-.06,1.24.18-.41.21-.82.06-1.24Z"/>
    <path d="m57.35,14.59c-.21.29-.43.58-.66.9.17-.36.29-.72.66-.9Z"/>
    <path d="m58.75,18.11c0,.33.07.64-.22.95.08-.34.15-.63.22-.95Z"/>
    <path d="m67.5,26.36c.13.35.07.78-.09.87.03-.28.06-.59.09-.87Z"/>
  </g>
</svg>